<?xml version="1.0" encoding="UTF-8"?>
<!DOCTYPE svg PUBLIC "-//W3C//DTD SVG 1.1//EN" "http://www.w3.org/Graphics/SVG/1.1/DTD/svg11.dtd">
<svg xmlns="http://www.w3.org/2000/svg" version="1.1" width="512px" height="512px" style="shape-rendering:geometricPrecision; text-rendering:geometricPrecision; image-rendering:optimizeQuality; fill-rule:evenodd; clip-rule:evenodd" xmlns:xlink="http://www.w3.org/1999/xlink">
<g><path style="opacity:0.98" fill="#FFFFFF" d="M 135.5,31.5 C 195.139,41.6358 231.639,76.3025 245,135.5C 246.987,145.077 248.32,154.743 249,164.5C 249.833,242.835 249.667,321.169 248.5,399.5C 233.055,364.888 208.055,339.721 173.5,324C 161.118,318.928 148.451,314.761 135.5,311.5C 135.5,218.167 135.5,124.833 135.5,31.5 Z"/></g>
<g><path style="opacity:0.955" fill="#FFFFFF" d="M 84.5,59.5 C 97.4562,63.3224 110.456,66.989 123.5,70.5C 123.333,153.167 123.5,235.834 124,318.5C 125.731,320.617 127.898,322.117 130.5,323C 159.085,328.96 184.418,341.294 206.5,360C 227.977,381.12 240.81,406.62 245,436.5C 213.036,400.584 174.203,374.75 128.5,359C 114.368,354.122 100.034,349.956 85.5,346.5C 84.5,250.836 84.1667,155.169 84.5,59.5 Z"/></g>
<g><path style="opacity:0.986" fill="#FFFFFF" d="M 420.5,114.5 C 422.5,114.5 424.5,114.5 426.5,114.5C 426.5,209.833 426.5,305.167 426.5,400.5C 402.653,397.595 379.319,400.095 356.5,408C 323.796,419.177 292.463,433.344 262.5,450.5C 261.167,356.833 261.167,263.167 262.5,169.5C 295.738,148.055 331.738,132.889 370.5,124C 387.193,120.227 403.859,117.06 420.5,114.5 Z"/></g>
<g><path style="opacity:0.981" fill="#FFFFFF" d="M 68.5,165.5 C 69.5,165.5 70.5,165.5 71.5,165.5C 71.0145,228.879 71.5145,292.212 73,355.5C 73.9025,356.701 75.0692,357.535 76.5,358C 126.772,367.643 171.772,388.31 211.5,420C 222.087,429.75 231.754,440.25 240.5,451.5C 214.227,449.736 187.893,450.569 161.5,454C 118.666,460.133 76.3327,468.633 34.5,479.5C 34.1667,378.498 34.5,277.498 35.5,176.5C 46.6712,172.998 57.6712,169.332 68.5,165.5 Z"/></g>
<g><path style="opacity:0.976" fill="#FFFFFF" d="M 439.5,165.5 C 451.601,168.755 463.601,172.422 475.5,176.5C 476.5,277.498 476.833,378.498 476.5,479.5C 441.477,470.662 406.144,463.162 370.5,457C 344.008,452.684 317.342,450.351 290.5,450C 324.392,430.369 360.725,417.703 399.5,412C 410.755,410.809 421.755,411.976 432.5,415.5C 434.697,415.152 436.53,414.152 438,412.5C 439.489,330.211 439.989,247.878 439.5,165.5 Z"/></g>
</svg>
