<?xml version="1.0" encoding="UTF-8"?>
<svg version="1.1" xmlns="http://www.w3.org/2000/svg" width="512" height="512">
<path d="M0 0 C0.95026062 -0.00571014 1.90052124 -0.01142029 2.87957764 -0.01730347 C3.91547028 -0.01842133 4.95136292 -0.01953918 6.01864624 -0.02069092 C7.11507446 -0.02565582 8.21150269 -0.03062073 9.34115601 -0.03573608 C12.97242866 -0.05035313 16.60365758 -0.05715987 20.23495483 -0.06268311 C22.76118979 -0.06843603 25.28742473 -0.07419375 27.81365967 -0.07995605 C32.43725816 -0.08912239 37.06084356 -0.09542246 41.68444884 -0.09845281 C48.46943743 -0.1029251 55.25422372 -0.12043621 62.03915083 -0.1494534 C67.93164931 -0.17377061 73.82408097 -0.18140187 79.71662521 -0.18312836 C82.2147672 -0.18614784 84.71290847 -0.19415247 87.21101761 -0.20731354 C90.71475591 -0.22445119 94.21800752 -0.2224744 97.72177124 -0.21600342 C98.74551849 -0.2252182 99.76926575 -0.23443298 100.82403564 -0.243927 C111.08311744 -0.1848538 119.68387999 1.95771467 127.25839233 9.14044189 C135.33434844 17.66506223 137.67419825 29.08068737 140.31698608 40.19512939 C140.87294507 42.46092176 141.42960608 44.72654196 141.98690796 46.99200439 C142.84791894 50.51887102 143.70338283 54.04680526 144.54672241 57.57794189 C145.37103667 61.01690396 146.21729672 64.44986236 147.06698608 67.88262939 C147.31299057 68.93787811 147.55899506 69.99312683 147.81245422 71.08035278 C149.22266756 76.70550801 150.36414145 80.57340578 155.25839233 84.14044189 C158.57174788 85.52826357 162.0815865 85.28095679 165.64120483 85.31622314 C166.89159546 85.3400708 168.14198608 85.36391846 169.43026733 85.38848877 C172.0420863 85.43107277 174.65411309 85.46252983 177.26620483 85.48223877 C187.48194369 85.7072781 196.06837225 87.28431465 203.72714233 94.43731689 C210.46834968 101.93519037 212.56114975 109.60104547 212.52581787 119.48840332 C212.53034898 120.4216077 212.5348801 121.35481208 212.53954852 122.31629539 C212.55219486 125.43904319 212.55057198 128.56161665 212.54891968 131.68438721 C212.55490481 133.92517826 212.56171032 136.16596726 212.5692749 138.40675354 C212.58694452 144.49159739 212.59163072 150.57638499 212.59290648 156.66125202 C212.59432819 160.46417386 212.59859821 164.26708141 212.60390091 168.06999969 C212.62145011 180.65619561 212.63074077 193.24235956 212.62923996 205.82856515 C212.62916005 206.50656748 212.62908014 207.18456982 212.6289978 207.88311768 C212.62891604 208.56195235 212.62883428 209.24078701 212.62875004 209.94019243 C212.62793754 220.93590901 212.64706745 231.93148848 212.67527454 242.92716542 C212.70403914 254.22979456 212.71744701 265.53235897 212.71608698 276.83503222 C212.71557745 283.17563944 212.72125619 289.5160915 212.74244308 295.85666656 C212.76183264 301.82227339 212.76194472 307.78757718 212.74740982 313.75319481 C212.74532148 315.93885682 212.75002408 318.12453783 212.76213074 320.31016731 C212.77762547 323.30198048 212.76824674 326.29275423 212.75286865 329.2845459 C212.76315578 330.14235193 212.7734429 331.00015795 212.78404176 331.8839581 C212.68096029 341.00578353 209.51582611 348.74150246 203.24667358 355.38653564 C196.12561022 361.66818093 187.70469048 364.38803974 178.27174664 364.39491749 C177.60144646 364.39812397 176.93114628 364.40133044 176.24053398 364.40463409 C174.00231378 364.41291229 171.76436271 364.40701756 169.52613831 364.40113831 C167.90205072 364.40415999 166.27796455 364.40804956 164.65388089 364.41273087 C160.19675784 364.42301751 155.73971517 364.42082734 151.2825855 364.41655028 C146.47332921 364.41408425 141.66409233 364.42309572 136.85484314 364.43058777 C127.43493425 364.4433405 118.01505386 364.44512772 108.5951378 364.44278751 C100.93806402 364.44100472 93.2809989 364.44275314 85.62392616 364.44701195 C83.98944116 364.44790473 83.98944116 364.44790473 82.32193625 364.44881555 C80.1083063 364.4500273 77.89467635 364.45124143 75.6810464 364.45245793 C54.91869354 364.46333581 34.15635691 364.46116988 13.39400313 364.45507308 C-5.5974714 364.44990448 -24.58889463 364.46115743 -43.58035902 364.4801713 C-63.08238778 364.49954658 -82.58439228 364.50780619 -102.08643073 364.50404805 C-113.0346611 364.50213544 -123.98284781 364.50462938 -134.93107033 364.51876259 C-144.25209808 364.53067344 -153.5730553 364.53208462 -162.89408401 364.51997242 C-167.64871799 364.51408151 -172.40322295 364.51299021 -177.15784836 364.52497482 C-181.51345372 364.53582594 -185.86882221 364.53273941 -190.22441646 364.51871314 C-191.79705295 364.51606408 -193.36970796 364.51843932 -194.94232628 364.526449 C-206.64933878 364.58191947 -216.44820068 363.89949162 -225.69863892 356.17169189 C-232.18112889 349.72638637 -235.94523941 342.65628524 -236.01841867 333.52183992 C-236.01532147 332.64830721 -236.01222426 331.77477451 -236.0090332 330.87477112 C-236.01356432 329.93833761 -236.01809543 329.0019041 -236.02276385 328.03709382 C-236.03542985 324.89742083 -236.03378603 321.75792082 -236.03213501 318.6182251 C-236.03811897 316.36772946 -236.04492421 314.11723587 -236.05249023 311.866745 C-236.07017311 305.75085125 -236.07484665 299.63501345 -236.07612181 293.51909661 C-236.07802067 288.41243275 -236.08537826 283.30578193 -236.092466 278.19912308 C-236.10782639 266.83649842 -236.11380314 255.47390839 -236.11245529 244.11127684 C-236.11237538 243.42972211 -236.11229547 242.74816738 -236.11221313 242.04595947 C-236.11213137 241.36356869 -236.11204961 240.6811779 -236.11196537 239.97810861 C-236.11115306 228.92736324 -236.13027709 217.87675437 -236.15848987 206.82604847 C-236.18725446 195.46920316 -236.20066231 184.11244503 -236.19930232 172.75555485 C-236.19879273 166.38363392 -236.20447409 160.01186736 -236.22565842 153.63997841 C-236.24504798 147.64401662 -236.24516004 141.64835634 -236.23062515 135.6523838 C-236.22853672 133.45543476 -236.23323995 131.25846682 -236.24534607 129.06155014 C-236.26083969 126.0543585 -236.25146272 123.04820111 -236.23608398 120.04103088 C-236.24637111 119.17865179 -236.25665824 118.31627269 -236.26725709 117.4277609 C-236.17035327 108.80940646 -233.37401792 101.02021954 -227.44473267 94.67169189 C-220.9260337 88.81084328 -213.90734407 85.89473798 -205.1068573 85.88215637 C-203.78770325 85.87532837 -202.46854919 85.86850037 -201.10942078 85.86146545 C-199.65942355 85.86388452 -198.2094266 85.86646877 -196.75942993 85.86920166 C-195.22312139 85.86481161 -193.68681522 85.85950844 -192.1505127 85.85336304 C-188.84880176 85.84188411 -185.54715483 85.83640517 -182.24542427 85.83548164 C-177.02159439 85.83353722 -171.79789649 85.8154639 -166.57411194 85.79472351 C-153.60003279 85.74558769 -140.62591791 85.7146547 -127.65176392 85.69342041 C-117.56590582 85.67688897 -107.48016119 85.65405549 -97.39437908 85.61039966 C-92.20458263 85.58864911 -87.01500189 85.58056301 -81.82516301 85.5827924 C-78.59292103 85.58112267 -75.36081928 85.567056 -72.12862778 85.54957962 C-70.63350764 85.54399261 -69.13835827 85.54348336 -67.64323616 85.54851723 C-57.26231955 85.75661988 -57.26231955 85.75661988 -47.74160767 82.14044189 C-44.00130554 76.93937109 -43.06288964 70.0238332 -41.59707642 63.87481689 C-40.99670426 61.43327797 -40.39577523 58.99187592 -39.79434204 56.55059814 C-38.85968944 52.72325334 -37.93016577 48.89485155 -37.01089478 45.06378174 C-36.11685597 41.35118685 -35.20208554 37.64417083 -34.28457642 33.93731689 C-34.01872238 32.80469421 -33.75286835 31.67207153 -33.47895813 30.50512695 C-30.94201362 20.35356603 -26.80317773 10.99194159 -17.74160767 5.14044189 C-11.94481392 2.08484383 -6.59409286 0.02380486 0 0 Z M-36.14834595 147.71514893 C-56.23064152 171.34951418 -66.76671542 202.15562492 -64.74160767 233.14044189 C-61.80258074 266.12980327 -46.43362052 293.81180637 -21.73770142 315.69903564 C1.96297072 335.01183888 32.74970181 344.34577816 63.19589233 341.67559814 C95.1089543 337.78088274 123.79880188 322.85422982 144.10214233 297.67559814 C163.67264875 272.5149522 172.06021763 241.37067679 168.57089233 209.76544189 C165.26179587 188.14298967 157.16009418 168.12971529 143.25839233 151.14044189 C142.81157104 150.5919458 142.36474976 150.04344971 141.90438843 149.47833252 C122.48621196 126.10802631 94.35992517 111.50977926 64.25839233 108.14044189 C25.96690277 105.96779472 -10.27070285 118.74763799 -36.14834595 147.71514893 Z M-192.17910767 134.95294189 C-193.05486115 138.35864989 -192.63297532 140.75324481 -191.74160767 144.14044189 C-188.97874305 147.57535466 -187.04903704 149.36669004 -182.74160767 150.14044189 C-181.31379897 150.23748409 -179.8823652 150.2882606 -178.45132446 150.30157471 C-177.19432991 150.31598602 -177.19432991 150.31598602 -175.91194153 150.33068848 C-175.01397354 150.33493835 -174.11600555 150.33918823 -173.19082642 150.34356689 C-172.25865799 150.34926697 -171.32648956 150.35496704 -170.36607361 150.36083984 C-168.39499034 150.37027673 -166.42389139 150.37681861 -164.45278931 150.38067627 C-161.45047206 150.39037289 -158.44884223 150.42140509 -155.44668579 150.45294189 C-153.52807005 150.45947342 -151.60944943 150.4647233 -149.69082642 150.46856689 C-148.35298347 150.4870871 -148.35298347 150.4870871 -146.9881134 150.50598145 C-140.73905396 150.48385155 -135.62202415 149.74210839 -130.80410767 145.39044189 C-129.2236464 142.04358275 -129.23675503 139.80062348 -129.74160767 136.14044189 C-131.76528662 132.66684737 -133.8517759 130.43705248 -137.74160767 129.14044189 C-139.25898541 129.03433887 -140.78045153 128.98192046 -142.30142212 128.96343994 C-143.68349602 128.94418709 -143.68349602 128.94418709 -145.0934906 128.92454529 C-146.08725204 128.91715836 -147.08101349 128.90977142 -148.10488892 128.90216064 C-149.12962814 128.8940889 -150.15436737 128.88601715 -151.2101593 128.87770081 C-153.37972322 128.86386747 -155.54930883 128.85314196 -157.71890259 128.84527588 C-161.03092825 128.82806236 -164.34195586 128.78416865 -167.65371704 128.74005127 C-169.76243367 128.72992414 -171.87115877 128.7214081 -173.97988892 128.71466064 C-174.96757767 128.69715256 -175.95526642 128.67964447 -176.97288513 128.66160583 C-183.63829787 128.6825548 -187.85252673 129.49768767 -192.17910767 134.95294189 Z " fill="#FFFFFF"  transform="translate(267.7416076660156,73.85955810546875)"/>
<path d="M0 0 C17.28370922 15.6837373 30.13163588 37.82294654 31.53930664 61.53588867 C32.15004627 92.74687369 26.38687413 116.93332845 4.65136719 140.30810547 C-12.67861416 158.21097876 -36.76245769 168.26477117 -61.50634766 168.83764648 C-85.77453801 169.08234354 -107.86820726 162.41343564 -126.63769531 146.55419922 C-127.84039062 145.57 -127.84039062 145.57 -129.06738281 144.56591797 C-146.24251919 129.93227374 -157.42434033 108.89106101 -160.63769531 86.55419922 C-161.37782167 72.63982366 -162.05295905 57.92411432 -157.63769531 44.55419922 C-157.28578125 43.47912109 -156.93386719 42.40404297 -156.57128906 41.29638672 C-152.17807047 29.03017244 -146.08107127 18.44252405 -137.63769531 8.55419922 C-136.99960938 7.72404297 -136.36152344 6.89388672 -135.70410156 6.03857422 C-121.37917301 -11.18383516 -96.88419387 -22.16097247 -74.95800781 -24.31689453 C-47.11232175 -25.86387709 -21.24516738 -18.75579625 0 0 Z M-112.82519531 15.86669922 C-114.79173157 17.73594105 -116.71465857 19.6392538 -118.63769531 21.55419922 C-119.38148438 22.26318359 -120.12527344 22.97216797 -120.89160156 23.70263672 C-133.25866066 36.33591431 -138.9141598 54.69876224 -139.13769531 72.05419922 C-138.86322703 93.36408858 -130.20181924 111.44688948 -115.55957031 126.72216797 C-100.98078997 140.68000026 -81.36390551 146.97608704 -61.45019531 146.76513672 C-45.58847472 145.88754152 -31.02815032 140.48704332 -18.63769531 130.55419922 C-17.80625 129.89806641 -16.97480469 129.24193359 -16.11816406 128.56591797 C-1.49771788 116.28114982 7.69285279 98.22763038 9.59423828 79.23779297 C10.84689098 60.04889227 6.19864983 40.34935507 -6.66748047 25.57763672 C-8.91209146 23.14850515 -11.25773313 20.85161936 -13.63769531 18.55419922 C-14.34410156 17.81685547 -15.05050781 17.07951172 -15.77832031 16.31982422 C-22.31876072 9.87923787 -30.35027901 6.24586648 -38.63769531 2.55419922 C-39.42917969 2.19197266 -40.22066406 1.82974609 -41.03613281 1.45654297 C-64.64068 -7.82666828 -94.53235931 -0.86972658 -112.82519531 15.86669922 Z " fill="#FFFFFF"  transform="translate(384.6376953125,226.44580078125)"/>
<path d="M0 0 C11.46565618 9.80296283 18.52299304 21.92021309 20.3359375 36.9609375 C21.49092985 51.87452299 17.27920306 66.32285908 7.85546875 78.046875 C-3.00920174 89.49162169 -15.16713202 95.82153863 -30.90649414 96.36132812 C-47.66135105 96.59750899 -60.35881046 91.85451595 -72.8515625 80.5234375 C-80.74785478 72.27451972 -86.8274568 60.45517233 -87.6640625 48.9609375 C-87.74398438 47.98125 -87.82390625 47.0015625 -87.90625 45.9921875 C-88.55444687 30.28294566 -83.22236535 15.77932127 -72.6015625 4.2109375 C-52.46979999 -14.61979274 -22.04883507 -16.87608784 0 0 Z " fill="#FFFFFF"  transform="translate(353.6640625,256.0390625)"/>
<path d="M0 0 C1.00146561 -0.0159874 2.00293121 -0.03197479 3.03474426 -0.04844666 C4.6566291 -0.05649071 4.6566291 -0.05649071 6.3112793 -0.06469727 C7.4248027 -0.07372574 8.53832611 -0.08275421 9.68559265 -0.09205627 C12.04346014 -0.10657337 14.40136805 -0.11544912 16.75927734 -0.11914062 C20.36128983 -0.13102365 23.96158229 -0.18018676 27.56323242 -0.23071289 C29.85423969 -0.2401785 32.14525747 -0.24741287 34.4362793 -0.25219727 C36.0490551 -0.28149574 36.0490551 -0.28149574 37.69441223 -0.31138611 C46.05085019 -0.26114667 46.05085019 -0.26114667 49.73779297 2.71630859 C55.69272593 9.3212102 53.07299805 9.82351245 53.07299805 22.30639648 C31.62299805 22.30639648 10.17299805 22.30639648 -11.92700195 22.30639648 C-11.92700195 6.4206822 -11.92700195 6.4206822 -7.92700195 2.30639648 C-4.68863053 0.1474822 -3.74547771 0.04522113 0 0 Z " fill="#FFFFFF"  transform="translate(85.927001953125,116.693603515625)"/>
</svg>
