<?xml version="1.0" standalone="no"?>
<!DOCTYPE svg PUBLIC "-//W3C//DTD SVG 20010904//EN"
 "http://www.w3.org/TR/2001/REC-SVG-20010904/DTD/svg10.dtd">
<svg version="1.0" xmlns="http://www.w3.org/2000/svg"
 width="512.000000pt" height="512.000000pt" viewBox="0 0 512.000000 512.000000"
 preserveAspectRatio="xMidYMid meet">

<g transform="translate(0.000000,512.000000) scale(0.100000,-0.100000)"
fill="#FFFFFF" stroke="none">
<path d="M3076 5110 c-33 -5 -93 -19 -134 -30 -91 -25 -1111 -399 -1199 -440
-205 -95 -367 -251 -459 -445 -68 -144 -85 -222 -91 -425 l-5 -175 -48 -33
c-30 -20 -58 -52 -76 -85 l-29 -52 -3 -255 -4 -255 -37 -26 c-21 -15 -48 -47
-60 -71 -20 -42 -21 -59 -21 -284 0 -272 6 -295 78 -354 l41 -32 3 -252 c3
-247 3 -252 29 -301 15 -31 44 -64 75 -87 l49 -38 6 -177 c8 -248 43 -385 146
-586 167 -324 476 -570 829 -662 304 -79 616 -50 877 81 121 62 217 133 328
243 215 216 367 513 429 838 11 59 106 695 212 1413 l192 1305 0 180 c0 154
-3 193 -22 268 -57 229 -181 421 -355 553 -83 63 -243 138 -347 164 -98 24
-311 34 -404 20z m304 -204 c248 -45 445 -196 550 -421 52 -110 71 -190 77
-327 l6 -117 -34 5 c-19 3 -86 13 -149 23 l-115 17 -6 69 c-14 150 -66 265
-161 352 -111 101 -278 138 -446 98 -87 -21 -1113 -400 -1186 -438 -153 -81
-215 -196 -225 -417 l-6 -135 -149 -3 -148 -3 4 158 c6 180 22 246 90 373 71
133 173 232 312 302 48 24 1040 395 1170 438 118 38 288 49 416 26z m-10 -517
c89 -49 140 -152 140 -281 0 -69 -378 -2689 -405 -2803 -39 -171 -119 -328
-218 -432 -106 -111 -208 -160 -352 -169 -264 -19 -525 155 -616 409 -18 50
-23 90 -26 213 l-5 151 35 20 c19 11 46 36 60 55 52 67 57 101 57 358 l0 237
41 33 c74 59 79 81 79 354 0 225 -1 242 -21 284 -12 25 -39 56 -60 71 l-38 26
-1 235 c0 137 -5 251 -11 274 -15 55 -54 110 -100 142 l-39 27 0 117 c0 154
19 208 93 265 29 21 1067 412 1157 435 65 17 182 6 230 -21z m613 -559 c-23
-181 -348 -2387 -352 -2392 -5 -6 -281 30 -289 38 -4 2 314 2195 339 2350 l10
60 147 -21 c115 -16 147 -24 145 -35z m-2161 -437 c16 -15 18 -36 18 -235 l0
-218 -305 0 -305 0 0 217 c0 187 2 219 17 235 15 17 37 18 286 18 238 0 273
-2 289 -17z m136 -860 l2 -203 -425 0 -425 0 0 198 c0 109 3 202 7 205 4 4
194 6 422 5 l416 -3 3 -202z m-118 -622 c0 -186 -2 -222 -16 -235 -23 -24
-555 -24 -578 0 -14 13 -16 49 -16 235 l0 219 305 0 305 0 0 -219z m-149 -606
c7 -169 24 -237 90 -366 199 -385 677 -548 1049 -359 147 75 279 217 368 395
38 78 82 196 97 263 8 38 14 39 185 13 l115 -17 -3 -34 c-4 -53 -75 -257 -122
-351 -199 -397 -517 -623 -910 -646 -221 -12 -435 41 -636 160 -103 61 -286
235 -349 332 -130 199 -185 389 -185 631 l0 135 148 -3 147 -3 6 -150z"/>
</g>
</svg>
