<?xml version="1.0" standalone="no"?>
<!DOCTYPE svg PUBLIC "-//W3C//DTD SVG 20010904//EN"
 "http://www.w3.org/TR/2001/REC-SVG-20010904/DTD/svg10.dtd">
<svg version="1.0" xmlns="http://www.w3.org/2000/svg"
 width="282.000000pt" height="305.000000pt" viewBox="0 0 282.000000 305.000000"
 preserveAspectRatio="xMidYMid meet">

<g transform="translate(0.000000,305.000000) scale(0.100000,-0.100000)"
fill="#FFFFFF" stroke="none">
<path d="M227 2830 c-32 -26 -43 -71 -25 -108 8 -15 256 -329 551 -698 l537
-671 0 -442 0 -441 -201 0 -201 0 -30 -30 c-26 -27 -30 -36 -25 -68 4 -22 17
-46 32 -59 l26 -23 489 0 489 0 26 23 c15 13 28 37 32 59 5 32 1 41 -25 68
l-30 30 -201 0 -201 0 0 441 0 442 537 671 c295 369 543 683 551 698 18 37 7
82 -25 108 -25 20 -39 20 -1153 20 -1114 0 -1128 0 -1153 -20z m2053 -166 c0
-3 -32 -46 -71 -95 l-71 -89 -757 0 -757 0 -72 90 c-40 49 -72 92 -72 95 0 3
405 5 900 5 495 0 900 -3 900 -6z"/>
</g>
</svg>
