<?xml version="1.0" encoding="UTF-8"?>
<!DOCTYPE svg PUBLIC "-//W3C//DTD SVG 1.1//EN" "http://www.w3.org/Graphics/SVG/1.1/DTD/svg11.dtd">
<svg xmlns="http://www.w3.org/2000/svg" version="1.1" width="512px" height="512px" style="shape-rendering:geometricPrecision; text-rendering:geometricPrecision; image-rendering:optimizeQuality; fill-rule:evenodd; clip-rule:evenodd" xmlns:xlink="http://www.w3.org/1999/xlink">
<g><path style="opacity:0.976" fill="#000000" d="M 248.5,41.5 C 279.221,39.9457 303.387,51.6124 321,76.5C 339.256,115.313 330.756,146.813 295.5,171C 287.939,175.131 279.939,177.964 271.5,179.5C 271.667,244.168 271.5,308.834 271,373.5C 268.193,380.487 263.027,383.82 255.5,383.5C 247.973,383.82 242.807,380.487 240,373.5C 239.5,308.834 239.333,244.168 239.5,179.5C 211.548,173.716 192.714,157.383 183,130.5C 175.512,92.6435 189.012,65.1435 223.5,48C 231.693,44.736 240.027,42.5694 248.5,41.5 Z M 250.5,74.5 C 266.26,73.6358 279.426,78.9692 290,90.5C 302.766,111.939 298.599,129.439 277.5,143C 256.154,152.472 237.32,148.972 221,132.5C 208.234,111.061 212.401,93.5612 233.5,80C 239.038,77.3738 244.705,75.5405 250.5,74.5 Z"/></g>
<g><path style="opacity:0.964" fill="#000000" d="M 312.5,313.5 C 346.841,315.801 379.841,323.634 411.5,337C 422.196,342.367 431.029,349.867 438,359.5C 446.269,377.032 443.102,392.199 428.5,405C 413.694,415.723 397.361,423.39 379.5,428C 329.879,440.107 279.546,444.774 228.5,442C 195.662,440.785 163.328,436.118 131.5,428C 110.74,423.21 92.5729,413.71 77,399.5C 64.2837,380.825 66.117,363.658 82.5,348C 98.4786,336.515 116.145,328.515 135.5,324C 152.775,319.593 170.275,316.426 188,314.5C 203.539,317.044 208.205,325.71 202,340.5C 199.635,343.869 196.468,346.036 192.5,347C 163.869,349.657 136.535,356.99 110.5,369C 107.151,371.353 104.151,374.02 101.5,377C 113.007,386.253 126.007,392.586 140.5,396C 192.489,408.541 245.155,412.541 298.5,408C 325.317,406.037 351.65,401.37 377.5,394C 389.341,390.415 400.007,384.748 409.5,377C 404.312,371.17 397.978,366.837 390.5,364C 383.909,361.469 377.242,359.136 370.5,357C 350.031,351.922 329.364,347.922 308.5,345C 297.19,335.728 296.857,326.061 307.5,316C 309.315,315.243 310.981,314.41 312.5,313.5 Z"/></g>
</svg>
