<?xml version="1.0" standalone="no"?>
<!DOCTYPE svg PUBLIC "-//W3C//DTD SVG 20010904//EN"
 "http://www.w3.org/TR/2001/REC-SVG-20010904/DTD/svg10.dtd">
<svg version="1.0" xmlns="http://www.w3.org/2000/svg"
 width="512.000000pt" height="512.000000pt" viewBox="0 0 512.000000 512.000000"
 preserveAspectRatio="xMidYMid meet">

<g transform="translate(0.000000,512.000000) scale(0.100000,-0.100000)"
fill="#FFFFFF" stroke="none">
<path d="M2430 4789 c-123 -24 -245 -122 -302 -245 -42 -91 -50 -210 -19 -302
42 -124 113 -205 228 -259 257 -123 558 39 603 325 29 177 -71 367 -233 442
-98 46 -181 58 -277 39z"/>
<path d="M3822 4198 c-9 -9 -12 -108 -12 -383 l0 -371 -173 -72 c-95 -40 -178
-72 -184 -72 -7 0 -270 122 -584 270 -315 149 -594 276 -620 281 -39 8 -60 7
-106 -6 -90 -26 -143 -87 -236 -274 -160 -319 -230 -623 -230 -1001 -1 -232
12 -322 54 -379 15 -22 186 -175 378 -340 193 -166 355 -309 361 -320 14 -27
13 -100 -6 -591 l-17 -425 21 -48 21 -47 -515 0 -515 0 40 72 c196 361 641
1202 639 1209 -6 16 -423 367 -430 360 -3 -3 -146 -338 -317 -744 -274 -650
-311 -744 -311 -790 0 -29 7 -64 14 -79 l15 -28 -364 0 c-212 0 -374 -4 -389
-10 -33 -12 -37 -64 -7 -80 27 -14 4395 -14 4422 0 30 16 26 68 -7 80 -15 6
-196 10 -445 10 l-419 0 0 1329 0 1330 113 67 c133 80 162 107 177 163 15 56
4 106 -34 149 -56 63 -119 76 -206 42 l-50 -20 0 353 c0 371 -1 377 -45 377
-12 0 -26 -5 -33 -12z m-807 -1244 c305 -103 408 -134 433 -130 18 3 105 48
194 100 88 53 162 96 164 96 2 0 4 -585 4 -1300 l0 -1300 -475 0 c-261 0 -475
2 -475 5 0 4 7 19 15 36 12 22 30 188 67 617 55 645 55 665 3 776 -15 31 -119
164 -260 332 -171 203 -235 286 -235 305 0 14 20 124 45 245 25 120 50 243 56
271 10 53 30 83 52 83 7 0 192 -61 412 -136z"/>
<path d="M1398 4096 c-242 -87 -463 -388 -524 -713 -20 -106 -15 -320 10 -396
47 -146 141 -252 253 -287 36 -11 80 -20 99 -20 94 0 243 58 320 124 39 33 42
39 48 103 21 206 104 473 222 709 l85 171 -17 49 c-39 116 -110 206 -199 252
-75 38 -204 42 -297 8z"/>
</g>
</svg>
