<?xml version="1.0" standalone="no"?>
<!DOCTYPE svg PUBLIC "-//W3C//DTD SVG 20010904//EN"
 "http://www.w3.org/TR/2001/REC-SVG-20010904/DTD/svg10.dtd">
<svg version="1.0" xmlns="http://www.w3.org/2000/svg"
 width="512.000000pt" height="512.000000pt" viewBox="0 0 512.000000 512.000000"
 preserveAspectRatio="xMidYMid meet">

<g transform="translate(0.000000,512.000000) scale(0.100000,-0.100000)"
fill="#FFFFFF" stroke="none">
<path d="M3421 4770 c-134 -74 -218 -165 -291 -315 -75 -154 -120 -351 -120
-530 0 -44 -4 -85 -8 -92 -5 -8 -22 -8 -62 -1 -84 15 -311 4 -402 -20 -115
-31 -216 -76 -315 -142 -88 -58 -206 -169 -262 -245 -16 -22 -383 -609 -817
-1305 -561 -902 -793 -1282 -806 -1323 -23 -74 -23 -130 0 -205 34 -107 113
-196 218 -244 40 -19 66 -23 144 -23 111 0 118 3 337 143 247 159 1028 658
1848 1182 270 172 518 335 552 362 267 211 407 544 377 897 -5 62 -7 115 -5
117 2 2 40 4 84 4 181 0 399 50 557 127 79 39 110 62 180 133 90 89 150 184
150 236 0 50 -145 169 -292 239 -40 19 -78 35 -85 35 -7 0 -13 2 -13 5 0 2 32
44 71 92 187 232 302 482 334 726 7 56 -2 129 -20 154 -11 15 -26 18 -78 16
-202 -8 -587 -168 -813 -339 -47 -35 -87 -64 -89 -64 -2 0 -9 17 -16 38 -32
98 -114 232 -196 320 -59 62 -83 66 -162 22z m106 -207 c54 -78 87 -144 113
-232 l23 -73 -22 -26 c-53 -67 -122 -174 -160 -251 -43 -84 -101 -247 -101
-281 0 -32 -17 -32 -68 0 -27 16 -70 39 -95 50 -46 21 -47 22 -48 68 -4 292
50 515 166 674 32 44 127 128 144 128 5 0 26 -26 48 -57z m1098 15 c-22 -140
-129 -370 -242 -523 -155 -208 -438 -448 -698 -591 l-68 -37 -19 23 -19 24
244 245 c135 135 250 256 256 268 17 34 13 52 -18 84 -56 56 -62 52 -303 -188
-120 -120 -218 -210 -218 -201 0 31 43 154 78 223 148 295 475 554 852 673
168 53 164 53 155 0z m-1668 -912 c346 -74 620 -346 689 -685 20 -102 15 -280
-11 -381 -23 -87 -85 -218 -139 -295 -47 -65 -180 -195 -200 -195 -7 0 -103
95 -215 210 -181 187 -206 210 -235 210 -66 0 -105 -64 -71 -117 10 -14 98
-109 197 -210 150 -154 178 -187 167 -198 -21 -19 -738 -475 -747 -475 -5 0
-33 26 -62 57 -30 32 -112 118 -182 191 -109 112 -133 132 -159 132 -40 0 -79
-39 -79 -81 0 -33 22 -59 239 -281 64 -66 102 -111 96 -116 -22 -20 -753 -482
-762 -482 -5 0 -59 53 -120 117 -229 245 -216 233 -251 233 -43 0 -82 -38 -82
-80 0 -26 21 -53 132 -171 73 -77 143 -153 156 -168 l23 -29 -268 -170 c-147
-94 -285 -178 -305 -187 -111 -46 -242 23 -279 146 -24 83 -19 93 325 646 178
285 327 518 332 518 5 0 62 -57 127 -127 67 -71 129 -129 143 -132 28 -7 79
15 88 39 20 53 9 72 -129 219 -74 80 -135 150 -135 156 0 11 433 714 455 738
9 10 58 -35 228 -208 188 -190 221 -220 248 -220 41 0 79 39 79 81 0 34 -5 39
-337 379 l-122 125 120 195 c136 220 213 330 268 384 l38 37 199 -208 c109
-114 207 -214 218 -222 25 -18 73 -16 96 4 24 22 32 58 21 87 -6 13 -98 115
-206 228 l-196 205 78 37 c117 57 207 77 345 77 66 1 146 -5 185 -13z m1461
-46 c66 -31 182 -107 182 -121 0 -4 -18 -29 -39 -56 -125 -158 -388 -253 -702
-253 l-110 0 -19 43 c-11 23 -20 47 -20 52 0 6 21 21 47 35 113 59 464 311
488 350 7 11 93 -14 173 -50z"/>
</g>
</svg>
