<?xml version="1.0" standalone="no"?>
<!DOCTYPE svg PUBLIC "-//W3C//DTD SVG 20010904//EN"
 "http://www.w3.org/TR/2001/REC-SVG-20010904/DTD/svg10.dtd">
<svg version="1.0" xmlns="http://www.w3.org/2000/svg"
 width="353.000000pt" height="322.000000pt" viewBox="0 0 353.000000 322.000000"
 preserveAspectRatio="xMidYMid meet">

<g transform="translate(0.000000,322.000000) scale(0.100000,-0.100000)"
fill="#FFFFFF"  stroke="none">
<path d="M698 2881 c-79 -85 -102 -147 -103 -276 0 -112 15 -165 71 -250 18
-27 256 -273 529 -545 l495 -495 172 173 173 172 -641 641 -640 640 -56 -60z"/>
<path d="M2263 2647 c-311 -312 -332 -339 -352 -453 -12 -64 -3 -147 22 -205
8 -19 52 -71 99 -116 100 -97 153 -119 273 -111 134 9 153 23 479 348 l290
288 -50 55 -49 55 -175 -174 c-96 -96 -180 -174 -186 -174 -13 0 -94 82 -94
95 0 6 79 89 175 185 l175 175 -52 52 -53 53 -180 -180 -180 -180 -55 55 -55
55 183 183 182 182 -53 53 -53 52 -291 -293z"/>
<path d="M2020 1435 c-71 -71 -111 -118 -105 -124 6 -5 223 -216 484 -470 261
-254 477 -458 481 -454 3 4 44 51 90 103 46 52 92 104 102 116 18 20 13 25
-453 480 -259 252 -474 460 -478 462 -3 1 -58 -50 -121 -113z"/>
<path d="M943 1027 l-411 -412 111 -118 112 -117 415 415 415 415 -115 115
-115 115 -412 -413z"/>
</g>
</svg>
