<?xml version="1.0" standalone="no"?>
<!DOCTYPE svg PUBLIC "-//W3C//DTD SVG 20010904//EN"
 "http://www.w3.org/TR/2001/REC-SVG-20010904/DTD/svg10.dtd">
<svg version="1.0" xmlns="http://www.w3.org/2000/svg"
 width="276.000000pt" height="299.000000pt" viewBox="0 0 276.000000 299.000000"
 preserveAspectRatio="xMidYMid meet">

<g transform="translate(0.000000,299.000000) scale(0.100000,-0.100000)"
fill="#FFFFFF" stroke="none">
<path d="M765 2760 c-217 -44 -381 -185 -464 -399 l-26 -66 -3 -1029 c-2 -764
0 -1032 9 -1042 9 -11 43 -14 143 -14 72 0 138 5 146 10 13 8 16 137 20 1032
5 994 6 1024 25 1063 59 120 221 199 340 166 33 -9 43 -8 63 7 14 9 61 40 105
67 121 76 124 94 31 147 -101 56 -270 82 -389 58z"/>
<path d="M1288 2551 c-132 -69 -199 -113 -213 -141 -22 -42 -19 -106 5 -130
23 -23 19 -25 107 42 67 50 170 106 235 127 52 17 65 35 47 68 -14 26 -78 62
-110 63 -10 0 -41 -13 -71 -29z"/>
<path d="M1574 2401 c-165 -26 -347 -130 -445 -253 -23 -29 -58 -87 -78 -128
-32 -68 -36 -85 -39 -177 -7 -166 -40 -175 503 138 451 261 456 264 453 294
-2 24 -13 36 -58 63 -95 56 -223 80 -336 63z"/>
<path d="M1556 1907 c-419 -242 -492 -287 -508 -317 -25 -45 -19 -95 19 -157
35 -57 83 -86 133 -80 22 3 203 102 490 267 250 144 470 272 487 284 37 24 63
70 63 113 0 40 -55 130 -93 153 -66 41 -66 41 -591 -263z"/>
<path d="M2276 1664 c-9 -8 -16 -21 -16 -27 0 -7 29 -62 64 -122 65 -113 88
-133 122 -105 22 19 18 35 -42 138 -81 139 -94 150 -128 116z"/>
<path d="M1942 1558 c-18 -18 -15 -36 19 -94 26 -46 35 -54 60 -54 43 0 49 37
13 97 -37 65 -64 79 -92 51z"/>
<path d="M1662 1368 c-7 -7 -12 -21 -12 -31 0 -20 66 -136 84 -149 21 -15 47
-8 57 16 10 21 6 33 -21 82 -51 89 -80 110 -108 82z"/>
<path d="M2492 1288 c-19 -19 -15 -36 23 -103 39 -70 57 -88 81 -83 38 7 41
35 10 94 -52 99 -83 123 -114 92z"/>
<path d="M2128 1259 c-10 -5 -18 -20 -18 -32 0 -28 159 -306 182 -318 24 -13
58 6 58 31 0 23 -155 298 -179 318 -18 14 -21 14 -43 1z"/>
<path d="M1452 1048 c-7 -7 -12 -19 -12 -28 0 -23 138 -257 156 -264 23 -9 54
12 54 36 0 20 -107 215 -138 251 -18 20 -43 22 -60 5z"/>
<path d="M1856 1018 c-15 -20 -13 -26 20 -87 108 -197 130 -232 152 -237 25
-7 52 11 52 33 0 20 -148 284 -168 301 -23 18 -39 15 -56 -10z"/>
<path d="M2394 792 c-21 -14 -22 -40 -3 -71 23 -38 41 -46 68 -31 26 14 26 36
1 78 -19 31 -43 40 -66 24z"/>
<path d="M1697 623 c-18 -17 0 -67 56 -162 34 -57 70 -109 80 -115 21 -14 51
2 55 30 2 17 -94 199 -128 238 -13 16 -51 22 -63 9z"/>
<path d="M2122 568 c-21 -21 -13 -48 38 -133 53 -87 69 -101 101 -85 30 17 22
49 -34 140 -53 85 -78 105 -105 78z"/>
</g>
</svg>
