<?xml version="1.0" standalone="no"?>
<!DOCTYPE svg PUBLIC "-//W3C//DTD SVG 20010904//EN"
 "http://www.w3.org/TR/2001/REC-SVG-20010904/DTD/svg10.dtd">
<svg version="1.0" xmlns="http://www.w3.org/2000/svg"
 width="512.000000pt" height="512.000000pt" viewBox="0 0 512.000000 512.000000"
 preserveAspectRatio="xMidYMid meet">

<g transform="translate(0.000000,512.000000) scale(0.100000,-0.100000)"
fill="#FFFFFF"  stroke="none">
<path d="M3620 4970 l0 -150 390 0 390 0 -390 -367 -389 -368 -1 -157 0 -158
600 0 600 0 0 150 0 150 -386 2 -386 3 386 364 386 364 0 158 0 159 -600 0
-600 0 0 -150z"/>
<path d="M1655 5026 c-252 -115 -348 -166 -499 -266 -616 -410 -1028 -1072
-1133 -1820 -25 -186 -23 -529 5 -715 87 -564 333 -1055 727 -1451 222 -222
429 -372 700 -505 191 -93 312 -139 489 -184 920 -234 1861 28 2517 701 184
189 317 369 433 587 62 116 220 466 214 473 -3 2 -97 -28 -209 -67 -223 -77
-384 -120 -554 -146 -155 -25 -526 -24 -685 0 -516 80 -946 292 -1317 651
-213 205 -351 393 -482 656 -170 344 -245 662 -245 1055 -1 325 30 497 154
867 44 131 80 240 80 243 0 10 -16 3 -195 -79z"/>
<path d="M2420 4370 l0 -150 235 -2 236 -3 -236 -215 -235 -215 0 -157 0 -158
450 0 450 0 0 150 0 150 -233 2 -233 3 233 214 233 213 0 159 0 159 -450 0
-450 0 0 -150z"/>
<path d="M3620 3170 l0 -150 235 -2 236 -3 -236 -215 -235 -215 0 -157 0 -158
450 0 450 0 0 150 0 150 -233 2 -233 3 233 214 233 213 0 159 0 159 -450 0
-450 0 0 -150z"/>
</g>
</svg>
