<?xml version="1.0" standalone="no"?>
<!DOCTYPE svg PUBLIC "-//W3C//DTD SVG 20010904//EN"
 "http://www.w3.org/TR/2001/REC-SVG-20010904/DTD/svg10.dtd">
<svg version="1.0" xmlns="http://www.w3.org/2000/svg"
 width="512.000000pt" height="512.000000pt" viewBox="0 0 512.000000 512.000000"
 preserveAspectRatio="xMidYMid meet">

<g transform="translate(0.000000,512.000000) scale(0.100000,-0.100000)"
fill="#FFFFFF"  stroke="none">
<path d="M4152 4564 c-29 -11 -190 -143 -536 -439 -271 -232 -505 -439 -520
-458 -18 -23 -106 -251 -246 -632 -120 -328 -220 -598 -222 -600 -1 -1 -337
-184 -745 -406 -409 -221 -742 -404 -740 -405 1 -1 22 2 47 6 74 15 235 11
313 -6 91 -21 170 -57 271 -122 137 -90 202 -92 326 -12 173 112 289 150 460
150 171 0 281 -35 443 -139 142 -92 202 -92 341 -1 111 73 130 81 273 125 7 2
-72 157 -193 381 -112 208 -204 380 -204 383 0 3 77 218 171 476 l172 470 457
391 c519 445 510 435 510 568 -1 113 -57 208 -155 258 -53 28 -164 34 -223 12z"/>
<path d="M3910 3044 c-99 -26 -179 -72 -257 -149 -312 -307 -175 -827 250
-950 77 -22 217 -22 293 0 350 101 519 474 363 802 -65 137 -217 258 -374 298
-74 19 -202 18 -275 -1z"/>
<path d="M72 1478 c-36 -10 -72 -57 -72 -96 0 -31 26 -79 49 -91 10 -6 51 -14
92 -19 87 -11 128 -27 206 -80 138 -93 229 -123 373 -123 145 0 235 30 374
124 89 60 142 77 240 77 103 0 141 -13 249 -84 142 -93 219 -118 367 -117 142
0 226 27 350 111 118 80 133 85 260 85 129 0 132 -1 275 -95 95 -61 166 -88
260 -98 159 -17 284 12 420 100 143 92 146 93 275 93 l115 0 65 -38 c36 -21
94 -56 130 -78 97 -59 175 -80 298 -80 146 -1 236 29 375 123 78 53 119 69
206 80 88 11 106 19 126 58 20 39 19 69 -5 107 -24 40 -65 52 -150 43 -92 -10
-166 -34 -232 -75 -32 -19 -84 -51 -115 -70 -77 -48 -122 -58 -228 -53 -100 5
-121 13 -250 98 -42 27 -101 58 -131 69 -113 43 -289 44 -405 3 -30 -10 -99
-47 -153 -81 -123 -79 -158 -91 -262 -91 -98 0 -151 17 -240 77 -138 94 -232
125 -374 125 -142 0 -236 -31 -374 -125 -89 -60 -142 -77 -240 -77 -104 0
-141 13 -260 90 -148 96 -264 126 -426 109 -95 -9 -169 -37 -265 -99 -143 -94
-146 -95 -275 -95 -127 0 -142 5 -260 85 -78 53 -127 76 -196 93 -78 20 -151
25 -192 15z"/>
<path d="M35 927 c-39 -39 -45 -78 -20 -126 16 -33 48 -47 124 -56 75 -9 132
-32 236 -98 142 -91 176 -101 335 -102 166 0 222 16 367 109 119 77 156 90
253 90 98 0 142 -14 234 -74 169 -110 247 -134 411 -127 134 5 188 24 330 113
119 75 198 100 287 90 83 -10 124 -26 230 -94 134 -85 190 -104 323 -109 160
-7 253 21 398 119 101 68 141 82 242 82 104 0 136 -12 274 -99 122 -78 182
-97 316 -103 159 -6 242 18 378 110 83 56 153 86 222 93 81 9 113 22 130 56
25 48 19 87 -19 125 -31 31 -39 34 -93 34 -115 0 -222 -38 -346 -122 -103 -70
-140 -83 -247 -83 -107 0 -144 13 -247 83 -130 88 -230 122 -365 122 -134 0
-231 -30 -348 -110 -191 -130 -328 -132 -519 -8 -52 34 -126 73 -165 87 -63
23 -85 26 -201 26 -117 -1 -137 -4 -198 -28 -37 -14 -109 -53 -160 -86 -112
-72 -190 -96 -285 -87 -74 6 -137 33 -244 103 -104 68 -180 94 -298 100 -160
9 -241 -16 -409 -122 -105 -66 -187 -90 -279 -81 -72 6 -125 29 -256 111 -106
65 -162 85 -273 92 l-82 6 -36 -36z"/>
</g>
</svg>
